<?xml version="1.0" encoding="UTF-8"?>
<svg id="logo" xmlns="http://www.w3.org/2000/svg" viewBox="0 0 206 121">
  <defs>
    <style>
      .cls-1, .cls-2, .cls-3 {
        fill: #1d1d1b;
      }

      .cls-4 {
        letter-spacing: -.02em;
      }

      .cls-2 {
        font-size: 31.95px;
      }

      .cls-2, .cls-3 {
        font-family: HankenGrotesk-Bold, 'Hanken Grotesk';
        font-weight: 700;
        opacity: .94;
      }

      .cls-5 {
        letter-spacing: -.02em;
      }

      .cls-6 {
        letter-spacing: -.09em;
      }

      .cls-3 {
        font-size: 12.93px;
      }

      .cls-7 {
        letter-spacing: 0em;
      }
    </style>
  </defs>
  <path class="cls-1" d="M81.31,19.57c1.4-1.02,2.8-2.05,4.2-3.07-1.36-1.81-3.51-4.27-6.64-6.56-1.24-.91-7.42-5.28-16.33-6.07-13.46-1.19-23.27,6.68-25.78,8.69-7.39,5.93-10.56,12.87-12.96,18.13-1.5,3.27-5.47,12.74-5.47,25.63,0,2.59.16,11.48,4.01,22.14,1.54,4.26,6.15,15.68,16.26,25.25,3.75,3.55,7.32,5.96,8.58,6.78,2.85,1.86,6.4,4.16,11.47,5.84,1.85.61,6.69,2.18,12.74,2.1,3.54-.05,16.5-.79,25.67-11.28,5.24-5.99,6.95-12.56,7.59-16.2-1.76-.25-3.52-.5-5.28-.74-.43,1.49-1.17,3.54-2.48,5.77-.89,1.52-2.72,4.54-6.31,7.1-3.45,2.45-6.72,3.2-7.46,3.35-4.45.95-8.03.02-10.4-.62-2.31-.62-6.16-1.98-11.37-5.96-1.86-1.42-9.88-7.75-16.04-19.71-4.66-9.06-5.94-16.85-6.21-18.66-1.76-11.55.46-20.47,1.57-24.74,1-3.83,2.09-7.89,5.1-12.45,1.46-2.21,4.28-6.38,9.58-9.3,1.41-.78,3.73-2.02,7.03-2.47,4.04-.55,7.17.41,9.05,1.01,4.77,1.52,8.04,4.21,9.89,6.03Z"/>
  <g>
    <text class="cls-2" transform="translate(61.18 52.88)"><tspan x="0" y="0">CENT</tspan><tspan class="cls-4" x="81.78" y="0">R</tspan><tspan x="100.76" y="0">O </tspan></text>
    <text class="cls-2" transform="translate(61.18 83.37)"><tspan x="0" y="0">P</tspan><tspan class="cls-7" x="17.95" y="0">E</tspan><tspan x="36.36" y="0">CCI</tspan></text>
    <text class="cls-3" transform="translate(155.1 70.11)"><tspan x="0" y="0">PR</tspan><tspan class="cls-6" x="15.18" y="0">A</tspan><tspan class="cls-5" x="22.68" y="0">T</tspan><tspan x="29.92" y="0">O</tspan></text>
  </g>
</svg>